<mxfile host="app.diagrams.net" modified="2023-09-11T19:26:26.288Z" agent="Mozilla/5.0 (Windows NT 10.0; Win64; x64) AppleWebKit/537.36 (KHTML, like Gecko) Chrome/116.0.0.0 Safari/537.36" etag="biUhAZuQN3lBrUAO0hLc" version="21.7.2" type="google">
  <diagram name="Page-1" id="L0SEtcENymhkOBwKR-po">
    <mxGraphModel grid="1" page="1" gridSize="10" guides="1" tooltips="1" connect="1" arrows="1" fold="1" pageScale="1" pageWidth="850" pageHeight="1100" math="0" shadow="0">
      <root>
        <mxCell id="0" />
        <mxCell id="1" parent="0" />
        <mxCell id="OekakzXYw5Td6o9CkYho-1" value="" style="rounded=0;whiteSpace=wrap;html=1;" vertex="1" parent="1">
          <mxGeometry x="30" y="115" width="130" height="55" as="geometry" />
        </mxCell>
        <mxCell id="ljp8NXxmMtH_aQYaRXgr-1" value="" style="endArrow=classic;html=1;rounded=0;" edge="1" parent="1">
          <mxGeometry width="50" height="50" relative="1" as="geometry">
            <mxPoint x="94.71000000000001" y="170" as="sourcePoint" />
            <mxPoint x="95.21000000000001" y="230" as="targetPoint" />
            <Array as="points" />
          </mxGeometry>
        </mxCell>
        <mxCell id="ljp8NXxmMtH_aQYaRXgr-4" value="const&amp;nbsp; &amp;nbsp;user" style="text;html=1;strokeColor=none;fillColor=none;align=center;verticalAlign=middle;whiteSpace=wrap;rounded=0;" vertex="1" parent="1">
          <mxGeometry x="60" y="127.5" width="70" height="30" as="geometry" />
        </mxCell>
        <mxCell id="500ywv5t879xlEf3PF2u-3" value="" style="rounded=0;whiteSpace=wrap;html=1;" vertex="1" parent="1">
          <mxGeometry x="230" y="-17.5" width="320" height="60" as="geometry" />
        </mxCell>
        <mxCell id="500ywv5t879xlEf3PF2u-4" value="&lt;font style=&quot;font-size: 24px;&quot;&gt;prototype inheritance&lt;/font&gt;" style="text;html=1;strokeColor=none;fillColor=none;align=center;verticalAlign=middle;whiteSpace=wrap;rounded=0;" vertex="1" parent="1">
          <mxGeometry x="180" y="-40" width="400" height="105" as="geometry" />
        </mxCell>
        <mxCell id="500ywv5t879xlEf3PF2u-7" value="" style="rounded=0;whiteSpace=wrap;html=1;" vertex="1" parent="1">
          <mxGeometry x="60" y="230" width="70" height="40" as="geometry" />
        </mxCell>
        <mxCell id="500ywv5t879xlEf3PF2u-8" value="__proto__" style="text;html=1;strokeColor=none;fillColor=none;align=center;verticalAlign=middle;whiteSpace=wrap;rounded=0;" vertex="1" parent="1">
          <mxGeometry x="65" y="235" width="60" height="30" as="geometry" />
        </mxCell>
        <mxCell id="500ywv5t879xlEf3PF2u-12" value="" style="rounded=0;whiteSpace=wrap;html=1;" vertex="1" parent="1">
          <mxGeometry x="40" y="270" width="90" height="40" as="geometry" />
        </mxCell>
        <mxCell id="500ywv5t879xlEf3PF2u-13" value="name: &quot;John&quot;" style="text;html=1;strokeColor=none;fillColor=none;align=center;verticalAlign=middle;whiteSpace=wrap;rounded=0;" vertex="1" parent="1">
          <mxGeometry x="50" y="275" width="75" height="30" as="geometry" />
        </mxCell>
        <mxCell id="500ywv5t879xlEf3PF2u-14" value="" style="rounded=0;whiteSpace=wrap;html=1;" vertex="1" parent="1">
          <mxGeometry x="30" y="340" width="130" height="40" as="geometry" />
        </mxCell>
        <mxCell id="500ywv5t879xlEf3PF2u-15" value="const&amp;nbsp; &amp;nbsp;human" style="text;html=1;strokeColor=none;fillColor=none;align=center;verticalAlign=middle;whiteSpace=wrap;rounded=0;" vertex="1" parent="1">
          <mxGeometry x="52.5" y="345" width="85" height="30" as="geometry" />
        </mxCell>
        <mxCell id="500ywv5t879xlEf3PF2u-18" value="" style="endArrow=classic;html=1;rounded=0;" edge="1" parent="1">
          <mxGeometry width="50" height="50" relative="1" as="geometry">
            <mxPoint x="160" y="359.71" as="sourcePoint" />
            <mxPoint x="210" y="359.71" as="targetPoint" />
            <Array as="points">
              <mxPoint x="160" y="359.71" />
            </Array>
          </mxGeometry>
        </mxCell>
        <mxCell id="500ywv5t879xlEf3PF2u-22" value="" style="rounded=0;whiteSpace=wrap;html=1;" vertex="1" parent="1">
          <mxGeometry x="210" y="340" width="110" height="40" as="geometry" />
        </mxCell>
        <mxCell id="500ywv5t879xlEf3PF2u-23" value="isHuman: true" style="text;html=1;strokeColor=none;fillColor=none;align=center;verticalAlign=middle;whiteSpace=wrap;rounded=0;" vertex="1" parent="1">
          <mxGeometry x="230" y="345" width="80" height="30" as="geometry" />
        </mxCell>
        <mxCell id="500ywv5t879xlEf3PF2u-24" value="" style="endArrow=classic;html=1;rounded=0;entryX=0.5;entryY=0;entryDx=0;entryDy=0;" edge="1" parent="1" target="500ywv5t879xlEf3PF2u-22">
          <mxGeometry width="50" height="50" relative="1" as="geometry">
            <mxPoint x="210" y="255" as="sourcePoint" />
            <mxPoint x="260" y="305" as="targetPoint" />
            <Array as="points">
              <mxPoint x="130" y="255" />
              <mxPoint x="265" y="255" />
            </Array>
          </mxGeometry>
        </mxCell>
        <mxCell id="500ywv5t879xlEf3PF2u-25" value="" style="rounded=0;whiteSpace=wrap;html=1;" vertex="1" parent="1">
          <mxGeometry x="210" y="380" width="110" height="40" as="geometry" />
        </mxCell>
        <mxCell id="500ywv5t879xlEf3PF2u-27" value="__proto__" style="text;html=1;strokeColor=none;fillColor=none;align=center;verticalAlign=middle;whiteSpace=wrap;rounded=0;" vertex="1" parent="1">
          <mxGeometry x="220" y="385" width="90" height="30" as="geometry" />
        </mxCell>
        <mxCell id="500ywv5t879xlEf3PF2u-28" value="" style="rounded=0;whiteSpace=wrap;html=1;" vertex="1" parent="1">
          <mxGeometry x="30" y="500" width="130" height="40" as="geometry" />
        </mxCell>
        <mxCell id="500ywv5t879xlEf3PF2u-29" value="const&amp;nbsp; &amp;nbsp;mersedes" style="text;html=1;strokeColor=none;fillColor=none;align=center;verticalAlign=middle;whiteSpace=wrap;rounded=0;" vertex="1" parent="1">
          <mxGeometry x="40" y="505" width="110" height="30" as="geometry" />
        </mxCell>
        <mxCell id="500ywv5t879xlEf3PF2u-30" value="" style="endArrow=classic;html=1;rounded=0;" edge="1" parent="1">
          <mxGeometry width="50" height="50" relative="1" as="geometry">
            <mxPoint x="160" y="520" as="sourcePoint" />
            <mxPoint x="210" y="520" as="targetPoint" />
            <Array as="points">
              <mxPoint x="180" y="520" />
            </Array>
          </mxGeometry>
        </mxCell>
        <mxCell id="500ywv5t879xlEf3PF2u-35" value="" style="edgeStyle=orthogonalEdgeStyle;rounded=0;orthogonalLoop=1;jettySize=auto;html=1;" edge="1" parent="1" source="500ywv5t879xlEf3PF2u-31" target="500ywv5t879xlEf3PF2u-32">
          <mxGeometry relative="1" as="geometry" />
        </mxCell>
        <mxCell id="500ywv5t879xlEf3PF2u-31" value="" style="rounded=0;whiteSpace=wrap;html=1;" vertex="1" parent="1">
          <mxGeometry x="210" y="480" width="110" height="40" as="geometry" />
        </mxCell>
        <mxCell id="500ywv5t879xlEf3PF2u-32" value="" style="rounded=0;whiteSpace=wrap;html=1;" vertex="1" parent="1">
          <mxGeometry x="210" y="520" width="110" height="40" as="geometry" />
        </mxCell>
        <mxCell id="500ywv5t879xlEf3PF2u-36" value="name: &quot;mersedes&quot;" style="text;html=1;strokeColor=none;fillColor=none;align=center;verticalAlign=middle;whiteSpace=wrap;rounded=0;" vertex="1" parent="1">
          <mxGeometry x="210" y="485" width="110" height="30" as="geometry" />
        </mxCell>
        <mxCell id="500ywv5t879xlEf3PF2u-37" value="__propo__" style="text;html=1;strokeColor=none;fillColor=none;align=center;verticalAlign=middle;whiteSpace=wrap;rounded=0;" vertex="1" parent="1">
          <mxGeometry x="220" y="525" width="90" height="30" as="geometry" />
        </mxCell>
        <mxCell id="500ywv5t879xlEf3PF2u-38" value="" style="rounded=0;whiteSpace=wrap;html=1;" vertex="1" parent="1">
          <mxGeometry x="30" y="620" width="130" height="40" as="geometry" />
        </mxCell>
        <mxCell id="500ywv5t879xlEf3PF2u-39" value="const&amp;nbsp; &amp;nbsp; car" style="text;html=1;strokeColor=none;fillColor=none;align=center;verticalAlign=middle;whiteSpace=wrap;rounded=0;" vertex="1" parent="1">
          <mxGeometry x="57.5" y="625" width="75" height="30" as="geometry" />
        </mxCell>
        <mxCell id="500ywv5t879xlEf3PF2u-40" value="" style="rounded=0;whiteSpace=wrap;html=1;" vertex="1" parent="1">
          <mxGeometry x="210" y="600" width="110" height="40" as="geometry" />
        </mxCell>
        <mxCell id="500ywv5t879xlEf3PF2u-41" value="" style="endArrow=classic;html=1;rounded=0;" edge="1" parent="1">
          <mxGeometry width="50" height="50" relative="1" as="geometry">
            <mxPoint x="160" y="640" as="sourcePoint" />
            <mxPoint x="210" y="640" as="targetPoint" />
            <Array as="points">
              <mxPoint x="180" y="640" />
              <mxPoint x="210" y="640" />
            </Array>
          </mxGeometry>
        </mxCell>
        <mxCell id="500ywv5t879xlEf3PF2u-42" value="hasEngine:&amp;nbsp; true" style="text;html=1;strokeColor=none;fillColor=none;align=center;verticalAlign=middle;whiteSpace=wrap;rounded=0;" vertex="1" parent="1">
          <mxGeometry x="210" y="605" width="110" height="30" as="geometry" />
        </mxCell>
        <mxCell id="500ywv5t879xlEf3PF2u-43" value="" style="endArrow=classic;html=1;rounded=0;" edge="1" parent="1">
          <mxGeometry width="50" height="50" relative="1" as="geometry">
            <mxPoint x="270" y="600" as="sourcePoint" />
            <mxPoint x="270" y="600" as="targetPoint" />
            <Array as="points">
              <mxPoint x="269.67" y="560" />
            </Array>
          </mxGeometry>
        </mxCell>
        <mxCell id="500ywv5t879xlEf3PF2u-44" value="" style="rounded=0;whiteSpace=wrap;html=1;" vertex="1" parent="1">
          <mxGeometry x="210" y="640" width="110" height="40" as="geometry" />
        </mxCell>
        <mxCell id="500ywv5t879xlEf3PF2u-45" value="__proto__" style="text;html=1;strokeColor=none;fillColor=none;align=center;verticalAlign=middle;whiteSpace=wrap;rounded=0;" vertex="1" parent="1">
          <mxGeometry x="235" y="645" width="60" height="30" as="geometry" />
        </mxCell>
        <mxCell id="500ywv5t879xlEf3PF2u-46" value="" style="rounded=0;whiteSpace=wrap;html=1;" vertex="1" parent="1">
          <mxGeometry x="30" y="740" width="130" height="40" as="geometry" />
        </mxCell>
        <mxCell id="500ywv5t879xlEf3PF2u-47" value="const&amp;nbsp; &amp;nbsp; emptyObj" style="text;html=1;strokeColor=none;fillColor=none;align=center;verticalAlign=middle;whiteSpace=wrap;rounded=0;" vertex="1" parent="1">
          <mxGeometry x="40" y="745" width="100" height="30" as="geometry" />
        </mxCell>
        <mxCell id="500ywv5t879xlEf3PF2u-48" value="" style="rounded=0;whiteSpace=wrap;html=1;" vertex="1" parent="1">
          <mxGeometry x="205" y="740" width="115" height="40" as="geometry" />
        </mxCell>
        <mxCell id="500ywv5t879xlEf3PF2u-50" value="__propo__" style="text;html=1;strokeColor=none;fillColor=none;align=center;verticalAlign=middle;whiteSpace=wrap;rounded=0;" vertex="1" parent="1">
          <mxGeometry x="235" y="745" width="60" height="30" as="geometry" />
        </mxCell>
        <mxCell id="500ywv5t879xlEf3PF2u-51" value="" style="endArrow=classic;html=1;rounded=0;entryX=0;entryY=0.5;entryDx=0;entryDy=0;" edge="1" parent="1" target="500ywv5t879xlEf3PF2u-48">
          <mxGeometry width="50" height="50" relative="1" as="geometry">
            <mxPoint x="160" y="760" as="sourcePoint" />
            <mxPoint x="210" y="710" as="targetPoint" />
          </mxGeometry>
        </mxCell>
        <mxCell id="500ywv5t879xlEf3PF2u-52" value="" style="rounded=0;whiteSpace=wrap;html=1;" vertex="1" parent="1">
          <mxGeometry x="700" y="300" width="120" height="40" as="geometry" />
        </mxCell>
        <mxCell id="500ywv5t879xlEf3PF2u-53" value="" style="rounded=0;whiteSpace=wrap;html=1;" vertex="1" parent="1">
          <mxGeometry x="700" y="260" width="120" height="40" as="geometry" />
        </mxCell>
        <mxCell id="500ywv5t879xlEf3PF2u-54" value="" style="rounded=0;whiteSpace=wrap;html=1;" vertex="1" parent="1">
          <mxGeometry x="700" y="340" width="120" height="40" as="geometry" />
        </mxCell>
        <mxCell id="500ywv5t879xlEf3PF2u-55" value="console.log(&quot;hello, world!&quot;);" style="text;html=1;strokeColor=none;fillColor=none;align=center;verticalAlign=middle;whiteSpace=wrap;rounded=0;" vertex="1" parent="1">
          <mxGeometry x="710" y="305" width="100" height="30" as="geometry" />
        </mxCell>
        <mxCell id="500ywv5t879xlEf3PF2u-56" value="fn" style="text;html=1;strokeColor=none;fillColor=none;align=center;verticalAlign=middle;whiteSpace=wrap;rounded=0;" vertex="1" parent="1">
          <mxGeometry x="710" y="265" width="100" height="30" as="geometry" />
        </mxCell>
        <mxCell id="500ywv5t879xlEf3PF2u-57" value="__proto__" style="text;html=1;strokeColor=none;fillColor=none;align=center;verticalAlign=middle;whiteSpace=wrap;rounded=0;" vertex="1" parent="1">
          <mxGeometry x="710" y="345" width="100" height="30" as="geometry" />
        </mxCell>
        <mxCell id="500ywv5t879xlEf3PF2u-58" value="" style="rounded=0;whiteSpace=wrap;html=1;" vertex="1" parent="1">
          <mxGeometry x="700" y="380" width="120" height="40" as="geometry" />
        </mxCell>
        <mxCell id="500ywv5t879xlEf3PF2u-59" value="prototype" style="text;html=1;strokeColor=none;fillColor=none;align=center;verticalAlign=middle;whiteSpace=wrap;rounded=0;" vertex="1" parent="1">
          <mxGeometry x="710" y="385" width="100" height="30" as="geometry" />
        </mxCell>
        <mxCell id="500ywv5t879xlEf3PF2u-60" value="" style="rounded=0;whiteSpace=wrap;html=1;" vertex="1" parent="1">
          <mxGeometry x="360" y="130" width="120" height="60" as="geometry" />
        </mxCell>
        <mxCell id="500ywv5t879xlEf3PF2u-61" value="" style="rounded=0;whiteSpace=wrap;html=1;" vertex="1" parent="1">
          <mxGeometry x="500" y="130" width="120" height="60" as="geometry" />
        </mxCell>
        <mxCell id="500ywv5t879xlEf3PF2u-62" value="" style="rounded=0;whiteSpace=wrap;html=1;" vertex="1" parent="1">
          <mxGeometry x="360" y="190" width="120" height="40" as="geometry" />
        </mxCell>
        <mxCell id="500ywv5t879xlEf3PF2u-63" value="" style="rounded=0;whiteSpace=wrap;html=1;" vertex="1" parent="1">
          <mxGeometry x="500" y="190" width="120" height="40" as="geometry" />
        </mxCell>
        <mxCell id="500ywv5t879xlEf3PF2u-64" value="" style="rounded=0;whiteSpace=wrap;html=1;" vertex="1" parent="1">
          <mxGeometry x="360" y="230" width="120" height="40" as="geometry" />
        </mxCell>
        <mxCell id="500ywv5t879xlEf3PF2u-65" value="" style="rounded=0;whiteSpace=wrap;html=1;" vertex="1" parent="1">
          <mxGeometry x="500" y="230" width="120" height="40" as="geometry" />
        </mxCell>
        <mxCell id="500ywv5t879xlEf3PF2u-66" value="Object" style="text;html=1;strokeColor=none;fillColor=none;align=center;verticalAlign=middle;whiteSpace=wrap;rounded=0;fontSize=20;" vertex="1" parent="1">
          <mxGeometry x="390" y="145" width="60" height="30" as="geometry" />
        </mxCell>
        <mxCell id="500ywv5t879xlEf3PF2u-67" value="&lt;font style=&quot;font-size: 17px;&quot;&gt;Function&lt;/font&gt;" style="text;html=1;strokeColor=none;fillColor=none;align=center;verticalAlign=middle;whiteSpace=wrap;rounded=0;" vertex="1" parent="1">
          <mxGeometry x="530" y="145" width="60" height="30" as="geometry" />
        </mxCell>
        <mxCell id="500ywv5t879xlEf3PF2u-68" value="prototype" style="text;html=1;strokeColor=none;fillColor=none;align=center;verticalAlign=middle;whiteSpace=wrap;rounded=0;" vertex="1" parent="1">
          <mxGeometry x="390" y="200" width="60" height="20" as="geometry" />
        </mxCell>
        <mxCell id="500ywv5t879xlEf3PF2u-69" value="__proto__" style="text;html=1;strokeColor=none;fillColor=none;align=center;verticalAlign=middle;whiteSpace=wrap;rounded=0;" vertex="1" parent="1">
          <mxGeometry x="530" y="195" width="60" height="30" as="geometry" />
        </mxCell>
        <mxCell id="500ywv5t879xlEf3PF2u-70" value="__proto__" style="text;html=1;strokeColor=none;fillColor=none;align=center;verticalAlign=middle;whiteSpace=wrap;rounded=0;" vertex="1" parent="1">
          <mxGeometry x="390" y="235" width="60" height="30" as="geometry" />
        </mxCell>
        <mxCell id="500ywv5t879xlEf3PF2u-71" value="prototype" style="text;html=1;strokeColor=none;fillColor=none;align=center;verticalAlign=middle;whiteSpace=wrap;rounded=0;" vertex="1" parent="1">
          <mxGeometry x="530" y="235" width="60" height="30" as="geometry" />
        </mxCell>
        <mxCell id="500ywv5t879xlEf3PF2u-73" value="" style="endArrow=classic;html=1;rounded=0;exitX=0;exitY=0.5;exitDx=0;exitDy=0;entryX=0.5;entryY=1;entryDx=0;entryDy=0;" edge="1" parent="1" target="500ywv5t879xlEf3PF2u-65">
          <mxGeometry width="50" height="50" relative="1" as="geometry">
            <mxPoint x="700" y="359.8300000000002" as="sourcePoint" />
            <mxPoint x="560" y="359.83" as="targetPoint" />
            <Array as="points">
              <mxPoint x="560" y="360" />
            </Array>
          </mxGeometry>
        </mxCell>
        <mxCell id="500ywv5t879xlEf3PF2u-74" value="" style="rounded=0;whiteSpace=wrap;html=1;" vertex="1" parent="1">
          <mxGeometry x="375" y="305" width="90" height="40" as="geometry" />
        </mxCell>
        <mxCell id="500ywv5t879xlEf3PF2u-76" value="null" style="text;html=1;strokeColor=none;fillColor=none;align=center;verticalAlign=middle;whiteSpace=wrap;rounded=0;" vertex="1" parent="1">
          <mxGeometry x="390" y="310" width="60" height="30" as="geometry" />
        </mxCell>
        <mxCell id="500ywv5t879xlEf3PF2u-77" value="" style="endArrow=classic;html=1;rounded=0;entryX=0.437;entryY=0.006;entryDx=0;entryDy=0;entryPerimeter=0;" edge="1" parent="1">
          <mxGeometry width="50" height="50" relative="1" as="geometry">
            <mxPoint x="420.33" y="269.76" as="sourcePoint" />
            <mxPoint x="419.66" y="305" as="targetPoint" />
          </mxGeometry>
        </mxCell>
        <mxCell id="500ywv5t879xlEf3PF2u-78" value="" style="endArrow=classic;html=1;rounded=0;dashed=1;edgeStyle=orthogonalEdgeStyle;" edge="1" parent="1">
          <mxGeometry width="50" height="50" relative="1" as="geometry">
            <mxPoint x="340" y="209.75" as="sourcePoint" />
            <mxPoint x="360" y="209.75" as="targetPoint" />
          </mxGeometry>
        </mxCell>
        <mxCell id="500ywv5t879xlEf3PF2u-81" value="" style="endArrow=none;dashed=1;html=1;dashPattern=1 3;strokeWidth=2;rounded=0;" edge="1" parent="1">
          <mxGeometry width="50" height="50" relative="1" as="geometry">
            <mxPoint x="620" y="207.5" as="sourcePoint" />
            <mxPoint x="680" y="90" as="targetPoint" />
            <Array as="points">
              <mxPoint x="680" y="208" />
            </Array>
          </mxGeometry>
        </mxCell>
        <mxCell id="500ywv5t879xlEf3PF2u-82" value="" style="endArrow=none;dashed=1;html=1;dashPattern=1 3;strokeWidth=2;rounded=0;" edge="1" parent="1">
          <mxGeometry width="50" height="50" relative="1" as="geometry">
            <mxPoint x="680" y="90" as="sourcePoint" />
            <mxPoint x="680" y="90" as="targetPoint" />
            <Array as="points">
              <mxPoint x="340" y="90" />
            </Array>
          </mxGeometry>
        </mxCell>
        <mxCell id="500ywv5t879xlEf3PF2u-83" value="" style="endArrow=none;dashed=1;html=1;dashPattern=1 3;strokeWidth=2;rounded=0;" edge="1" parent="1">
          <mxGeometry width="50" height="50" relative="1" as="geometry">
            <mxPoint x="340" y="210" as="sourcePoint" />
            <mxPoint x="340" y="90" as="targetPoint" />
          </mxGeometry>
        </mxCell>
        <mxCell id="500ywv5t879xlEf3PF2u-85" value="" style="endArrow=none;dashed=1;html=1;rounded=0;" edge="1" parent="1">
          <mxGeometry width="50" height="50" relative="1" as="geometry">
            <mxPoint x="340" y="760" as="sourcePoint" />
            <mxPoint x="340" y="210" as="targetPoint" />
          </mxGeometry>
        </mxCell>
        <mxCell id="500ywv5t879xlEf3PF2u-86" value="" style="endArrow=classic;html=1;rounded=0;dashed=1;" edge="1" parent="1">
          <mxGeometry width="50" height="50" relative="1" as="geometry">
            <mxPoint x="320" y="399.58" as="sourcePoint" />
            <mxPoint x="345" y="399.58" as="targetPoint" />
          </mxGeometry>
        </mxCell>
        <mxCell id="500ywv5t879xlEf3PF2u-87" value="" style="endArrow=none;dashed=1;html=1;dashPattern=1 3;strokeWidth=2;rounded=0;" edge="1" parent="1">
          <mxGeometry width="50" height="50" relative="1" as="geometry">
            <mxPoint x="320" y="759.5699999999999" as="sourcePoint" />
            <mxPoint x="340" y="759.5699999999999" as="targetPoint" />
            <Array as="points">
              <mxPoint x="340" y="759.5699999999999" />
            </Array>
          </mxGeometry>
        </mxCell>
        <mxCell id="500ywv5t879xlEf3PF2u-88" value="" style="endArrow=none;dashed=1;html=1;dashPattern=1 3;strokeWidth=2;rounded=0;" edge="1" parent="1">
          <mxGeometry width="50" height="50" relative="1" as="geometry">
            <mxPoint x="320" y="659.74" as="sourcePoint" />
            <mxPoint x="340" y="659.74" as="targetPoint" />
          </mxGeometry>
        </mxCell>
        <mxCell id="500ywv5t879xlEf3PF2u-89" value="" style="rounded=0;whiteSpace=wrap;html=1;" vertex="1" parent="1">
          <mxGeometry x="510" y="445" width="120" height="55" as="geometry" />
        </mxCell>
        <mxCell id="500ywv5t879xlEf3PF2u-90" value="" style="rounded=0;whiteSpace=wrap;html=1;" vertex="1" parent="1">
          <mxGeometry x="510" y="500" width="120" height="40" as="geometry" />
        </mxCell>
        <mxCell id="500ywv5t879xlEf3PF2u-91" value="" style="rounded=0;whiteSpace=wrap;html=1;" vertex="1" parent="1">
          <mxGeometry x="510" y="540" width="120" height="40" as="geometry" />
        </mxCell>
        <mxCell id="500ywv5t879xlEf3PF2u-92" value="String" style="text;html=1;strokeColor=none;fillColor=none;align=center;verticalAlign=middle;whiteSpace=wrap;rounded=0;fontSize=19;" vertex="1" parent="1">
          <mxGeometry x="540" y="457.5" width="60" height="22.5" as="geometry" />
        </mxCell>
        <mxCell id="500ywv5t879xlEf3PF2u-93" value="__proto__" style="text;html=1;strokeColor=none;fillColor=none;align=center;verticalAlign=middle;whiteSpace=wrap;rounded=0;" vertex="1" parent="1">
          <mxGeometry x="540" y="505" width="60" height="30" as="geometry" />
        </mxCell>
        <mxCell id="500ywv5t879xlEf3PF2u-94" value="prototype" style="text;html=1;strokeColor=none;fillColor=none;align=center;verticalAlign=middle;whiteSpace=wrap;rounded=0;" vertex="1" parent="1">
          <mxGeometry x="540" y="545" width="60" height="30" as="geometry" />
        </mxCell>
        <mxCell id="500ywv5t879xlEf3PF2u-96" value="" style="endArrow=none;html=1;rounded=0;" edge="1" parent="1">
          <mxGeometry width="50" height="50" relative="1" as="geometry">
            <mxPoint x="630" y="520" as="sourcePoint" />
            <mxPoint x="670" y="400" as="targetPoint" />
            <Array as="points">
              <mxPoint x="670" y="520" />
            </Array>
          </mxGeometry>
        </mxCell>
        <mxCell id="500ywv5t879xlEf3PF2u-97" value="" style="endArrow=classic;html=1;rounded=0;" edge="1" parent="1">
          <mxGeometry width="50" height="50" relative="1" as="geometry">
            <mxPoint x="670" y="400" as="sourcePoint" />
            <mxPoint x="670" y="360" as="targetPoint" />
          </mxGeometry>
        </mxCell>
        <mxCell id="500ywv5t879xlEf3PF2u-98" value="" style="rounded=0;whiteSpace=wrap;html=1;" vertex="1" parent="1">
          <mxGeometry x="375" y="630" width="115" height="40" as="geometry" />
        </mxCell>
        <mxCell id="500ywv5t879xlEf3PF2u-99" value="" style="rounded=0;whiteSpace=wrap;html=1;" vertex="1" parent="1">
          <mxGeometry x="375" y="670" width="115" height="40" as="geometry" />
        </mxCell>
        <mxCell id="500ywv5t879xlEf3PF2u-100" value="" style="rounded=0;whiteSpace=wrap;html=1;" vertex="1" parent="1">
          <mxGeometry x="375" y="710" width="115" height="40" as="geometry" />
        </mxCell>
        <mxCell id="500ywv5t879xlEf3PF2u-101" value="const&amp;nbsp; str" style="text;html=1;strokeColor=none;fillColor=none;align=center;verticalAlign=middle;whiteSpace=wrap;rounded=0;" vertex="1" parent="1">
          <mxGeometry x="402.5" y="635" width="60" height="35" as="geometry" />
        </mxCell>
        <mxCell id="500ywv5t879xlEf3PF2u-102" value="&quot;&quot;" style="text;html=1;strokeColor=none;fillColor=none;align=center;verticalAlign=middle;whiteSpace=wrap;rounded=0;" vertex="1" parent="1">
          <mxGeometry x="402.5" y="675" width="60" height="30" as="geometry" />
        </mxCell>
        <mxCell id="500ywv5t879xlEf3PF2u-103" value="__proto__" style="text;html=1;strokeColor=none;fillColor=none;align=center;verticalAlign=middle;whiteSpace=wrap;rounded=0;" vertex="1" parent="1">
          <mxGeometry x="402.5" y="720" width="60" height="30" as="geometry" />
        </mxCell>
        <mxCell id="500ywv5t879xlEf3PF2u-104" value="" style="endArrow=classic;html=1;rounded=0;exitX=1;exitY=0.5;exitDx=0;exitDy=0;entryX=0.5;entryY=1;entryDx=0;entryDy=0;" edge="1" parent="1" source="500ywv5t879xlEf3PF2u-100" target="500ywv5t879xlEf3PF2u-91">
          <mxGeometry width="50" height="50" relative="1" as="geometry">
            <mxPoint x="520" y="730" as="sourcePoint" />
            <mxPoint x="570" y="680" as="targetPoint" />
            <Array as="points">
              <mxPoint x="570" y="730" />
            </Array>
          </mxGeometry>
        </mxCell>
        <mxCell id="500ywv5t879xlEf3PF2u-105" value="" style="endArrow=none;html=1;rounded=0;" edge="1" parent="1">
          <mxGeometry width="50" height="50" relative="1" as="geometry">
            <mxPoint x="670" y="520" as="sourcePoint" />
            <mxPoint x="670" y="890" as="targetPoint" />
          </mxGeometry>
        </mxCell>
        <mxCell id="500ywv5t879xlEf3PF2u-106" value="" style="rounded=0;whiteSpace=wrap;html=1;" vertex="1" parent="1">
          <mxGeometry x="372.5" y="775" width="117.5" height="45" as="geometry" />
        </mxCell>
        <mxCell id="500ywv5t879xlEf3PF2u-108" value="" style="rounded=0;whiteSpace=wrap;html=1;" vertex="1" parent="1">
          <mxGeometry x="372.5" y="880" width="117.5" height="40" as="geometry" />
        </mxCell>
        <mxCell id="500ywv5t879xlEf3PF2u-109" value="" style="rounded=0;whiteSpace=wrap;html=1;" vertex="1" parent="1">
          <mxGeometry x="372.5" y="920" width="117.5" height="40" as="geometry" />
        </mxCell>
        <mxCell id="500ywv5t879xlEf3PF2u-110" value="const&amp;nbsp; arr" style="text;html=1;strokeColor=none;fillColor=none;align=center;verticalAlign=middle;whiteSpace=wrap;rounded=0;" vertex="1" parent="1">
          <mxGeometry x="401.25" y="780" width="60" height="30" as="geometry" />
        </mxCell>
        <mxCell id="500ywv5t879xlEf3PF2u-111" value="[ 1, 2, 3]" style="text;html=1;strokeColor=none;fillColor=none;align=center;verticalAlign=middle;whiteSpace=wrap;rounded=0;" vertex="1" parent="1">
          <mxGeometry x="401.25" y="885" width="60" height="30" as="geometry" />
        </mxCell>
        <mxCell id="500ywv5t879xlEf3PF2u-112" value="__proto__" style="text;html=1;strokeColor=none;fillColor=none;align=center;verticalAlign=middle;whiteSpace=wrap;rounded=0;" vertex="1" parent="1">
          <mxGeometry x="401.25" y="925" width="60" height="30" as="geometry" />
        </mxCell>
        <mxCell id="500ywv5t879xlEf3PF2u-114" value="" style="rounded=0;whiteSpace=wrap;html=1;" vertex="1" parent="1">
          <mxGeometry x="520" y="775" width="120" height="50" as="geometry" />
        </mxCell>
        <mxCell id="500ywv5t879xlEf3PF2u-115" value="" style="rounded=0;whiteSpace=wrap;html=1;" vertex="1" parent="1">
          <mxGeometry x="520" y="825" width="120" height="40" as="geometry" />
        </mxCell>
        <mxCell id="500ywv5t879xlEf3PF2u-116" value="" style="rounded=0;whiteSpace=wrap;html=1;" vertex="1" parent="1">
          <mxGeometry x="520" y="865" width="120" height="40" as="geometry" />
        </mxCell>
        <mxCell id="500ywv5t879xlEf3PF2u-117" value="Array" style="text;html=1;strokeColor=none;fillColor=none;align=center;verticalAlign=middle;whiteSpace=wrap;rounded=0;fontSize=17;" vertex="1" parent="1">
          <mxGeometry x="550" y="785" width="60" height="30" as="geometry" />
        </mxCell>
        <mxCell id="500ywv5t879xlEf3PF2u-118" value="__proto__" style="text;html=1;strokeColor=none;fillColor=none;align=center;verticalAlign=middle;whiteSpace=wrap;rounded=0;" vertex="1" parent="1">
          <mxGeometry x="550" y="830" width="60" height="30" as="geometry" />
        </mxCell>
        <mxCell id="500ywv5t879xlEf3PF2u-119" value="prototype" style="text;html=1;strokeColor=none;fillColor=none;align=center;verticalAlign=middle;whiteSpace=wrap;rounded=0;" vertex="1" parent="1">
          <mxGeometry x="550" y="870" width="60" height="30" as="geometry" />
        </mxCell>
        <mxCell id="500ywv5t879xlEf3PF2u-120" value="" style="endArrow=classic;html=1;rounded=0;" edge="1" parent="1">
          <mxGeometry width="50" height="50" relative="1" as="geometry">
            <mxPoint x="640" y="850" as="sourcePoint" />
            <mxPoint x="670" y="850" as="targetPoint" />
          </mxGeometry>
        </mxCell>
        <mxCell id="500ywv5t879xlEf3PF2u-121" value="" style="rounded=0;whiteSpace=wrap;html=1;" vertex="1" parent="1">
          <mxGeometry x="700" y="820" width="120" height="50" as="geometry" />
        </mxCell>
        <mxCell id="500ywv5t879xlEf3PF2u-122" value="" style="rounded=0;whiteSpace=wrap;html=1;" vertex="1" parent="1">
          <mxGeometry x="700" y="865" width="120" height="45" as="geometry" />
        </mxCell>
        <mxCell id="500ywv5t879xlEf3PF2u-123" value="" style="rounded=0;whiteSpace=wrap;html=1;" vertex="1" parent="1">
          <mxGeometry x="700" y="910" width="120" height="40" as="geometry" />
        </mxCell>
        <mxCell id="500ywv5t879xlEf3PF2u-124" value="&lt;font style=&quot;font-size: 18px;&quot;&gt;Boolean&lt;/font&gt;" style="text;html=1;strokeColor=none;fillColor=none;align=center;verticalAlign=middle;whiteSpace=wrap;rounded=0;" vertex="1" parent="1">
          <mxGeometry x="730" y="830" width="60" height="30" as="geometry" />
        </mxCell>
        <mxCell id="500ywv5t879xlEf3PF2u-125" value="__proto__" style="text;html=1;strokeColor=none;fillColor=none;align=center;verticalAlign=middle;whiteSpace=wrap;rounded=0;" vertex="1" parent="1">
          <mxGeometry x="730" y="875" width="60" height="30" as="geometry" />
        </mxCell>
        <mxCell id="500ywv5t879xlEf3PF2u-126" value="prototype" style="text;html=1;strokeColor=none;fillColor=none;align=center;verticalAlign=middle;whiteSpace=wrap;rounded=0;" vertex="1" parent="1">
          <mxGeometry x="730" y="915" width="60" height="30" as="geometry" />
        </mxCell>
        <mxCell id="500ywv5t879xlEf3PF2u-129" value="" style="endArrow=classic;html=1;rounded=0;" edge="1" parent="1">
          <mxGeometry width="50" height="50" relative="1" as="geometry">
            <mxPoint x="700" y="889.64" as="sourcePoint" />
            <mxPoint x="670" y="889.64" as="targetPoint" />
          </mxGeometry>
        </mxCell>
        <mxCell id="500ywv5t879xlEf3PF2u-130" value="" style="rounded=0;whiteSpace=wrap;html=1;" vertex="1" parent="1">
          <mxGeometry x="700" y="970" width="120" height="40" as="geometry" />
        </mxCell>
        <mxCell id="500ywv5t879xlEf3PF2u-131" value="" style="rounded=0;whiteSpace=wrap;html=1;" vertex="1" parent="1">
          <mxGeometry x="700" y="1010" width="120" height="30" as="geometry" />
        </mxCell>
        <mxCell id="500ywv5t879xlEf3PF2u-132" value="" style="rounded=0;whiteSpace=wrap;html=1;" vertex="1" parent="1">
          <mxGeometry x="700" y="1040" width="120" height="30" as="geometry" />
        </mxCell>
        <mxCell id="500ywv5t879xlEf3PF2u-133" value="const&amp;nbsp; &amp;nbsp;isAuth" style="text;html=1;strokeColor=none;fillColor=none;align=center;verticalAlign=middle;whiteSpace=wrap;rounded=0;" vertex="1" parent="1">
          <mxGeometry x="710" y="975" width="100" height="30" as="geometry" />
        </mxCell>
        <mxCell id="500ywv5t879xlEf3PF2u-134" value="false" style="text;html=1;strokeColor=none;fillColor=none;align=center;verticalAlign=middle;whiteSpace=wrap;rounded=0;" vertex="1" parent="1">
          <mxGeometry x="730" y="1010" width="60" height="30" as="geometry" />
        </mxCell>
        <mxCell id="500ywv5t879xlEf3PF2u-135" value="__proto__" style="text;html=1;strokeColor=none;fillColor=none;align=center;verticalAlign=middle;whiteSpace=wrap;rounded=0;" vertex="1" parent="1">
          <mxGeometry x="730" y="1040" width="60" height="30" as="geometry" />
        </mxCell>
        <mxCell id="500ywv5t879xlEf3PF2u-136" value="" style="endArrow=classic;html=1;rounded=0;entryX=1;entryY=0.5;entryDx=0;entryDy=0;" edge="1" parent="1" target="500ywv5t879xlEf3PF2u-123">
          <mxGeometry width="50" height="50" relative="1" as="geometry">
            <mxPoint x="840" y="980" as="sourcePoint" />
            <mxPoint x="890" y="930" as="targetPoint" />
            <Array as="points">
              <mxPoint x="840" y="930" />
            </Array>
          </mxGeometry>
        </mxCell>
        <mxCell id="500ywv5t879xlEf3PF2u-137" value="" style="endArrow=none;html=1;rounded=0;" edge="1" parent="1">
          <mxGeometry width="50" height="50" relative="1" as="geometry">
            <mxPoint x="840" y="1050" as="sourcePoint" />
            <mxPoint x="840" y="980" as="targetPoint" />
          </mxGeometry>
        </mxCell>
        <mxCell id="500ywv5t879xlEf3PF2u-140" value="" style="endArrow=none;html=1;rounded=0;" edge="1" parent="1">
          <mxGeometry width="50" height="50" relative="1" as="geometry">
            <mxPoint x="820" y="1055.2299999999998" as="sourcePoint" />
            <mxPoint x="840" y="1055" as="targetPoint" />
          </mxGeometry>
        </mxCell>
        <mxCell id="500ywv5t879xlEf3PF2u-142" value="" style="endArrow=classic;html=1;rounded=0;" edge="1" parent="1">
          <mxGeometry width="50" height="50" relative="1" as="geometry">
            <mxPoint x="432.19" y="820" as="sourcePoint" />
            <mxPoint x="432.19" y="880" as="targetPoint" />
          </mxGeometry>
        </mxCell>
        <mxCell id="500ywv5t879xlEf3PF2u-143" value="" style="endArrow=classic;html=1;rounded=0;exitX=1.021;exitY=0.87;exitDx=0;exitDy=0;exitPerimeter=0;" edge="1" parent="1">
          <mxGeometry width="50" height="50" relative="1" as="geometry">
            <mxPoint x="489.99749999999995" y="944.8000000000002" as="sourcePoint" />
            <mxPoint x="578" y="910" as="targetPoint" />
            <Array as="points">
              <mxPoint x="577.53" y="945" />
            </Array>
          </mxGeometry>
        </mxCell>
        <mxCell id="500ywv5t879xlEf3PF2u-144" value="" style="rounded=0;whiteSpace=wrap;html=1;" vertex="1" parent="1">
          <mxGeometry x="510" y="995" width="120" height="60" as="geometry" />
        </mxCell>
        <mxCell id="500ywv5t879xlEf3PF2u-145" value="" style="endArrow=none;html=1;rounded=0;" edge="1" parent="1">
          <mxGeometry width="50" height="50" relative="1" as="geometry">
            <mxPoint x="670" y="1070" as="sourcePoint" />
            <mxPoint x="670" y="885" as="targetPoint" />
            <Array as="points">
              <mxPoint x="670" y="885" />
            </Array>
          </mxGeometry>
        </mxCell>
        <mxCell id="500ywv5t879xlEf3PF2u-146" value="" style="endArrow=none;html=1;rounded=0;" edge="1" parent="1">
          <mxGeometry width="50" height="50" relative="1" as="geometry">
            <mxPoint x="630" y="1080" as="sourcePoint" />
            <mxPoint x="670" y="1080" as="targetPoint" />
          </mxGeometry>
        </mxCell>
        <mxCell id="500ywv5t879xlEf3PF2u-147" value="" style="rounded=0;whiteSpace=wrap;html=1;" vertex="1" parent="1">
          <mxGeometry x="510" y="1055" width="120" height="45" as="geometry" />
        </mxCell>
        <mxCell id="500ywv5t879xlEf3PF2u-148" value="" style="rounded=0;whiteSpace=wrap;html=1;" vertex="1" parent="1">
          <mxGeometry x="510" y="1100" width="120" height="40" as="geometry" />
        </mxCell>
        <mxCell id="500ywv5t879xlEf3PF2u-149" value="Number" style="text;html=1;strokeColor=none;fillColor=none;align=center;verticalAlign=middle;whiteSpace=wrap;rounded=0;fontSize=18;" vertex="1" parent="1">
          <mxGeometry x="540" y="1010" width="60" height="30" as="geometry" />
        </mxCell>
        <mxCell id="500ywv5t879xlEf3PF2u-150" value="prototype" style="text;html=1;strokeColor=none;fillColor=none;align=center;verticalAlign=middle;whiteSpace=wrap;rounded=0;" vertex="1" parent="1">
          <mxGeometry x="540" y="1105" width="60" height="30" as="geometry" />
        </mxCell>
        <mxCell id="500ywv5t879xlEf3PF2u-151" value="__proto__" style="text;html=1;strokeColor=none;fillColor=none;align=center;verticalAlign=middle;whiteSpace=wrap;rounded=0;" vertex="1" parent="1">
          <mxGeometry x="540" y="1062.5" width="60" height="30" as="geometry" />
        </mxCell>
        <mxCell id="500ywv5t879xlEf3PF2u-152" value="" style="rounded=0;whiteSpace=wrap;html=1;" vertex="1" parent="1">
          <mxGeometry x="341.25" y="1070" width="120" height="52.5" as="geometry" />
        </mxCell>
        <mxCell id="500ywv5t879xlEf3PF2u-153" value="" style="rounded=0;whiteSpace=wrap;html=1;" vertex="1" parent="1">
          <mxGeometry x="341.25" y="1122.5" width="120" height="37.5" as="geometry" />
        </mxCell>
        <mxCell id="500ywv5t879xlEf3PF2u-154" value="" style="rounded=0;whiteSpace=wrap;html=1;" vertex="1" parent="1">
          <mxGeometry x="341.25" y="1160" width="120" height="40" as="geometry" />
        </mxCell>
        <mxCell id="500ywv5t879xlEf3PF2u-155" value="const&amp;nbsp; num" style="text;html=1;strokeColor=none;fillColor=none;align=center;verticalAlign=middle;whiteSpace=wrap;rounded=0;" vertex="1" parent="1">
          <mxGeometry x="365" y="1081.25" width="75" height="30" as="geometry" />
        </mxCell>
        <mxCell id="500ywv5t879xlEf3PF2u-156" value="12" style="text;html=1;strokeColor=none;fillColor=none;align=center;verticalAlign=middle;whiteSpace=wrap;rounded=0;" vertex="1" parent="1">
          <mxGeometry x="365" y="1126.25" width="60" height="30" as="geometry" />
        </mxCell>
        <mxCell id="500ywv5t879xlEf3PF2u-157" value="__proto__" style="text;html=1;strokeColor=none;fillColor=none;align=center;verticalAlign=middle;whiteSpace=wrap;rounded=0;" vertex="1" parent="1">
          <mxGeometry x="365" y="1165" width="60" height="30" as="geometry" />
        </mxCell>
        <mxCell id="500ywv5t879xlEf3PF2u-158" value="" style="endArrow=none;html=1;rounded=0;" edge="1" parent="1">
          <mxGeometry width="50" height="50" relative="1" as="geometry">
            <mxPoint x="462.5" y="1176.25" as="sourcePoint" />
            <mxPoint x="480" y="1120" as="targetPoint" />
            <Array as="points">
              <mxPoint x="480" y="1176" />
            </Array>
          </mxGeometry>
        </mxCell>
        <mxCell id="500ywv5t879xlEf3PF2u-159" value="" style="endArrow=classic;html=1;rounded=0;" edge="1" parent="1">
          <mxGeometry width="50" height="50" relative="1" as="geometry">
            <mxPoint x="480" y="1120.25" as="sourcePoint" />
            <mxPoint x="510.12" y="1119.75" as="targetPoint" />
          </mxGeometry>
        </mxCell>
        <mxCell id="500ywv5t879xlEf3PF2u-161" value="" style="rounded=0;whiteSpace=wrap;html=1;" vertex="1" parent="1">
          <mxGeometry x="30" y="910" width="120" height="60" as="geometry" />
        </mxCell>
        <mxCell id="500ywv5t879xlEf3PF2u-162" value="" style="rounded=0;whiteSpace=wrap;html=1;" vertex="1" parent="1">
          <mxGeometry x="30" y="1010" width="120" height="30" as="geometry" />
        </mxCell>
        <mxCell id="500ywv5t879xlEf3PF2u-164" value="" style="rounded=0;whiteSpace=wrap;html=1;" vertex="1" parent="1">
          <mxGeometry x="30" y="1070" width="120" height="40" as="geometry" />
        </mxCell>
        <mxCell id="500ywv5t879xlEf3PF2u-165" value="" style="rounded=0;whiteSpace=wrap;html=1;" vertex="1" parent="1">
          <mxGeometry x="200" y="910" width="120" height="60" as="geometry" />
        </mxCell>
        <mxCell id="500ywv5t879xlEf3PF2u-166" value="" style="rounded=0;whiteSpace=wrap;html=1;" vertex="1" parent="1">
          <mxGeometry x="200" y="1010" width="120" height="30" as="geometry" />
        </mxCell>
        <mxCell id="500ywv5t879xlEf3PF2u-167" value="" style="rounded=0;whiteSpace=wrap;html=1;" vertex="1" parent="1">
          <mxGeometry x="200" y="1070" width="120" height="40" as="geometry" />
        </mxCell>
        <mxCell id="500ywv5t879xlEf3PF2u-168" value="undefined" style="text;html=1;strokeColor=none;fillColor=none;align=center;verticalAlign=middle;whiteSpace=wrap;rounded=0;" vertex="1" parent="1">
          <mxGeometry x="57.5" y="1075" width="60" height="30" as="geometry" />
        </mxCell>
        <mxCell id="500ywv5t879xlEf3PF2u-169" value="undefined" style="text;html=1;strokeColor=none;fillColor=none;align=center;verticalAlign=middle;whiteSpace=wrap;rounded=0;" vertex="1" parent="1">
          <mxGeometry x="232.5" y="1075" width="60" height="30" as="geometry" />
        </mxCell>
        <mxCell id="500ywv5t879xlEf3PF2u-170" value="__proto__" style="text;html=1;strokeColor=none;fillColor=none;align=center;verticalAlign=middle;whiteSpace=wrap;rounded=0;" vertex="1" parent="1">
          <mxGeometry x="230" y="1010" width="60" height="30" as="geometry" />
        </mxCell>
        <mxCell id="500ywv5t879xlEf3PF2u-171" value="__proto__" style="text;html=1;strokeColor=none;fillColor=none;align=center;verticalAlign=middle;whiteSpace=wrap;rounded=0;" vertex="1" parent="1">
          <mxGeometry x="60" y="1010" width="60" height="30" as="geometry" />
        </mxCell>
        <mxCell id="500ywv5t879xlEf3PF2u-172" value="const&amp;nbsp; &amp;nbsp;emptyWithoutProto" style="text;html=1;strokeColor=none;fillColor=none;align=center;verticalAlign=middle;whiteSpace=wrap;rounded=0;" vertex="1" parent="1">
          <mxGeometry x="200" y="925" width="120" height="30" as="geometry" />
        </mxCell>
        <mxCell id="500ywv5t879xlEf3PF2u-173" value="const&amp;nbsp; bmw" style="text;html=1;strokeColor=none;fillColor=none;align=center;verticalAlign=middle;whiteSpace=wrap;rounded=0;" vertex="1" parent="1">
          <mxGeometry x="40" y="925" width="100" height="30" as="geometry" />
        </mxCell>
        <mxCell id="500ywv5t879xlEf3PF2u-174" value="" style="endArrow=classic;html=1;rounded=0;" edge="1" parent="1">
          <mxGeometry width="50" height="50" relative="1" as="geometry">
            <mxPoint x="259.82" y="970" as="sourcePoint" />
            <mxPoint x="260" y="1010" as="targetPoint" />
          </mxGeometry>
        </mxCell>
        <mxCell id="500ywv5t879xlEf3PF2u-175" value="" style="endArrow=classic;html=1;rounded=0;" edge="1" parent="1">
          <mxGeometry width="50" height="50" relative="1" as="geometry">
            <mxPoint x="89.82" y="970" as="sourcePoint" />
            <mxPoint x="90" y="1010" as="targetPoint" />
          </mxGeometry>
        </mxCell>
        <mxCell id="500ywv5t879xlEf3PF2u-176" value="" style="endArrow=classic;html=1;rounded=0;" edge="1" parent="1">
          <mxGeometry width="50" height="50" relative="1" as="geometry">
            <mxPoint x="89.82" y="1040" as="sourcePoint" />
            <mxPoint x="89.82" y="1070" as="targetPoint" />
          </mxGeometry>
        </mxCell>
        <mxCell id="500ywv5t879xlEf3PF2u-177" value="" style="endArrow=classic;html=1;rounded=0;" edge="1" parent="1">
          <mxGeometry width="50" height="50" relative="1" as="geometry">
            <mxPoint x="259.82" y="1040" as="sourcePoint" />
            <mxPoint x="259.82" y="1070" as="targetPoint" />
          </mxGeometry>
        </mxCell>
      </root>
    </mxGraphModel>
  </diagram>
</mxfile>
